<svg xmlns="http://www.w3.org/2000/svg" viewBox="0 0 208.1 213.68"><defs><style>.cls-1{fill:#ffd551;}.cls-2{fill:#ffb900;}.cls-3{fill:#ff7730;}.cls-4{fill:#bf6c0d;}.cls-5{fill:#a56021;}.cls-6{fill:#8c4c17;}</style></defs><g id="Layer_2" data-name="Layer 2"><g id="Layer_1-2" data-name="Layer 1"><g id="sunflower"><g id="petals"><g id="petal"><path class="cls-1" d="M92.32,0c-11.93,21.2-9.64,37.47-9.64,37.47h0c0,.68.11,1.37.18,2.06,1.62,14.39,9,25.38,16.59,24.53s12.36-13.2,10.75-27.59c-.07-.7-.17-1.38-.27-2h0S108.64,18,92.32,0Z"/></g><g id="petal-2" data-name="petal"><path class="cls-1" d="M45.62,19C45.89,43.36,56,56.31,56,56.31l0,0c.38.56.78,1.13,1.19,1.69,8.59,11.66,20.52,17.46,26.63,13S88,53.32,79.37,41.65c-.41-.56-.83-1.1-1.26-1.63l0,0S68.77,26.5,45.62,19Z"/></g><g id="petal-3" data-name="petal"><path class="cls-1" d="M0,105.45c21.2,11.93,37.47,9.64,37.47,9.64v0c.68,0,1.37-.11,2.06-.19,14.39-1.61,25.38-9,24.53-16.59S50.86,85.91,36.47,87.52c-.7.08-1.38.17-2,.27v0S18,89.12,0,105.45Z"/></g><g id="petal-4" data-name="petal"><path class="cls-1" d="M12.08,56.12C24.47,77.05,39.71,83.21,39.71,83.21l0,0c.61.3,1.23.59,1.87.86,13.27,5.81,26.5,4.87,29.54-2.09S65.89,64.63,52.62,58.83c-.64-.28-1.27-.54-1.91-.79l0,0S35.86,51,12.08,56.12Z"/></g><g id="petal-5" data-name="petal"><path class="cls-2" d="M91.9.05c16.27,18.09,17.59,34.46,17.59,34.46h0c.1.67.19,1.36.26,2,1.57,14.4-3.28,26.74-10.83,27.56S83.93,53.94,82.37,39.54c-.08-.69-.14-1.37-.19-2h0S79.91,21.21,91.9.05Z"/></g><g id="petal-6" data-name="petal"><path class="cls-2" d="M141.63,8.44c5,23.8-2,38.64-2,38.64l0,0c-.25.64-.51,1.27-.79,1.91C133,62.22,122.58,70.49,115.63,67.42s-7.85-16.29-2-29.55c.28-.63.57-1.26.88-1.87l0,0S120.66,20.77,141.63,8.44Z"/></g><g id="petal-7" data-name="petal"><path class="cls-1" d="M182.45,37.31c-7.53,23.13-21,32.46-21,32.46l0,0c-.53.42-1.08.84-1.64,1.25-11.69,8.56-24.8,10.53-29.29,4.4s1.35-18,13-26.59c.56-.41,1.13-.81,1.69-1.19l0,0S158.13,37.5,182.45,37.31Z"/></g><g id="petal-8" data-name="petal"><path class="cls-1" d="M115.1,213.68c11.93-21.2,9.65-37.47,9.65-37.47h0c0-.68-.11-1.36-.19-2.05-1.61-14.4-9-25.38-16.59-24.54s-12.36,13.2-10.75,27.6c.08.69.17,1.37.27,2.05h0S98.78,195.64,115.1,213.68Z"/></g><g id="petal-9" data-name="petal"><path class="cls-2" d="M161.8,194.65c-.27-24.33-10.38-37.28-10.38-37.28l0,0c-.39-.57-.78-1.13-1.2-1.69-8.59-11.66-20.51-17.46-26.63-13s-4.1,17.62,4.49,29.28c.41.56.83,1.1,1.26,1.64l0,0S138.65,187.19,161.8,194.65Z"/></g><g id="petal-10" data-name="petal"><path class="cls-1" d="M205,82.84c-21.2-11.93-37.47-9.65-37.47-9.65v0c-.68,0-1.36.11-2.05.19-14.4,1.61-25.38,9-24.54,16.59s13.2,12.36,27.6,10.75c.69-.08,1.37-.17,2.05-.27v0S187,99.16,205,82.84Z"/></g><g id="petal-11" data-name="petal"><path class="cls-2" d="M195.35,157.57c-12.4-20.94-27.64-27.09-27.64-27.09v0c-.62-.3-1.24-.59-1.88-.87-13.27-5.8-26.5-4.86-29.54,2.1s5.25,17.3,18.52,23.11c.64.27,1.28.54,1.91.78v0S171.56,162.68,195.35,157.57Z"/></g><g id="petal-12" data-name="petal"><path class="cls-1" d="M208.1,120.77c-17.4-17-33.7-19-33.7-19v0c-.67-.13-1.35-.25-2-.35-14.32-2.17-26.85,2.16-28,9.67s9.55,15.36,23.88,17.52c.68.11,1.37.2,2,.27v0S186.45,131.87,208.1,120.77Z"/></g><g id="petal-13" data-name="petal"><path class="cls-2" d="M64.86,205.35c-5-23.8,2-38.64,2-38.64h0c.25-.63.52-1.27.8-1.9,5.84-13.26,16.21-21.52,23.16-18.46s7.85,16.3,2,29.55c-.28.64-.57,1.26-.87,1.88h0S85.83,193,64.86,205.35Z"/></g><g id="petal-14" data-name="petal"><path class="cls-1" d="M25.23,175c7.53-23.13,21.06-32.47,21.06-32.47l0,0c.54-.43,1.08-.84,1.64-1.26,11.69-8.55,24.8-10.52,29.29-4.39s-1.35,18-13,26.59c-.57.41-1.13.81-1.7,1.19l0,0S49.56,174.8,25.23,175Z"/></g><g id="petal-15" data-name="petal"><path class="cls-2" d="M4.91,143.2c13.26-20.39,28.74-25.91,28.74-25.91v0c.63-.27,1.27-.53,1.91-.78,13.51-5.25,26.68-3.75,29.43,3.33S59,137,45.53,142.19c-.65.25-1.3.49-1.94.71v0S28.46,149.31,4.91,143.2Z"/></g><g id="petal-16" data-name="petal"><path class="cls-2" d="M45.62,19C45.89,43.36,56,56.31,56,56.31l0,0c.38.56.78,1.13,1.19,1.69,8.59,11.66,20.52,17.46,26.63,13S88,53.32,79.37,41.65c-.41-.56-.83-1.1-1.26-1.63l0,0S68.77,26.5,45.62,19Z"/></g><g id="petal-17" data-name="petal"><path class="cls-2" d="M0,105.45c21.2,11.93,37.47,9.64,37.47,9.64v0c.68,0,1.37-.11,2.06-.19,14.39-1.61,25.38-9,24.53-16.59S50.86,85.91,36.47,87.52c-.7.08-1.38.17-2,.27v0S18,89.12,0,105.45Z"/></g><g id="petal-18" data-name="petal"><path class="cls-2" d="M12.08,56.12C24.47,77.05,39.71,83.21,39.71,83.21l0,0c.61.3,1.23.59,1.87.86,13.27,5.81,26.5,4.87,29.54-2.09S65.89,64.63,52.62,58.83c-.64-.28-1.27-.54-1.91-.79l0,0S35.86,51,12.08,56.12Z"/></g><g id="petal-19" data-name="petal"><path class="cls-2" d="M182.45,37.31c-7.53,23.13-21,32.46-21,32.46l0,0c-.53.42-1.08.84-1.64,1.25-11.69,8.56-24.8,10.53-29.29,4.4s1.35-18,13-26.59c.56-.41,1.13-.81,1.69-1.19l0,0S158.13,37.5,182.45,37.31Z"/></g><g id="petal-20" data-name="petal"><path class="cls-2" d="M115.1,213.68c11.93-21.2,9.65-37.47,9.65-37.47h0c0-.68-.11-1.36-.19-2.05-1.61-14.4-9-25.38-16.59-24.54s-12.36,13.2-10.75,27.6c.08.69.17,1.37.27,2.05h0S98.78,195.64,115.1,213.68Z"/></g><g id="petal-21" data-name="petal"><path class="cls-2" d="M205,82.84c-21.2-11.93-37.47-9.65-37.47-9.65v0c-.68,0-1.36.11-2.05.19-14.4,1.61-25.38,9-24.54,16.59s13.2,12.36,27.6,10.75c.69-.08,1.37-.17,2.05-.27v0S187,99.16,205,82.84Z"/></g><g id="petal-22" data-name="petal"><path class="cls-1" d="M208.1,120.77c-17.4-17-33.7-19-33.7-19v0c-.67-.13-1.35-.25-2-.35-14.32-2.17-26.85,2.16-28,9.67s9.55,15.36,23.88,17.52c.68.11,1.37.2,2,.27v0S186.45,131.87,208.1,120.77Z"/></g><g id="petal-23" data-name="petal"><path class="cls-2" d="M25.23,175c7.53-23.13,21.06-32.47,21.06-32.47l0,0c.54-.43,1.08-.84,1.64-1.26,11.69-8.55,24.8-10.52,29.29-4.39s-1.35,18-13,26.59c-.57.41-1.13.81-1.7,1.19l0,0S49.56,174.8,25.23,175Z"/></g><g id="petal-24" data-name="petal"><path class="cls-2" d="M208.1,120.77c-17.4-17-33.7-19-33.7-19v0c-.67-.13-1.35-.25-2-.35-14.32-2.17-26.85,2.16-28,9.67s9.55,15.36,23.88,17.52c.68.11,1.37.2,2,.27v0S186.45,131.87,208.1,120.77Z"/></g></g><g id="petal-highlights"><g id="petal-highlight"><path class="cls-3" d="M92.87,39.54c-.08-.69-.14-1.37-.19-2h0S91,25.23,98.35,8.16A82.13,82.13,0,0,0,91.9.05c-12,21.16-9.76,37.44-9.76,37.44h0c0,.68.11,1.36.19,2,1.56,14.4,9,25.41,16.51,24.59a8.15,8.15,0,0,0,4.31-1.91C98.14,58.51,94,49.91,92.87,39.54Z"/></g><g id="petal-highlight-2" data-name="petal-highlight"><path class="cls-3" d="M162.82,138.65c.64.28,1.26.57,1.88.87v0s11.42,4.62,22.52,19.43c2.57-.3,5.28-.73,8.12-1.34-12.4-20.94-27.64-27.09-27.64-27.09v0c-.62-.3-1.24-.59-1.88-.87-13.27-5.8-26.5-4.86-29.54,2.1a8.48,8.48,0,0,0-.26,5.71C141.31,133.67,152.05,133.94,162.82,138.65Z"/></g><g id="petal-highlight-3" data-name="petal-highlight"><path class="cls-3" d="M122.62,43.87c.28-.63.57-1.26.88-1.87l0,0s4.7-11.53,19.75-22.65a83.63,83.63,0,0,0-1.58-10.89C120.66,20.77,114.46,36,114.46,36l0,0c-.31.61-.6,1.24-.88,1.87-5.84,13.26-4.94,26.49,2,29.55A8,8,0,0,0,120,68C117.77,62.19,118.58,53,122.62,43.87Z"/></g><g id="petal-highlight-4" data-name="petal-highlight"><path class="cls-3" d="M143.48,59.3c.56-.41,1.13-.81,1.69-1.19l0,0s11.46-8.9,33-10.13a82.91,82.91,0,0,0,4.28-10.64c-24.32.19-37.3,10.27-37.3,10.27l0,0c-.56.38-1.13.78-1.69,1.19-11.47,8.4-17.3,20-13.27,26.24C132.34,69.8,137,64,143.48,59.3Z"/></g><g id="petal-highlight-5" data-name="petal-highlight"><path class="cls-3" d="M142.32,93.58c3.35-5.4,12.28-9.94,23.16-11.16.69-.08,1.37-.14,2.05-.19v0s12.89-1.8,30.66,6.2A83.65,83.65,0,0,0,205,82.84c-21.2-11.93-37.47-9.65-37.47-9.65v0c-.68,0-1.36.11-2.05.19-14.4,1.61-25.38,9-24.54,16.59A7.86,7.86,0,0,0,142.32,93.58Z"/></g><g id="petal-highlight-6" data-name="petal-highlight"><path class="cls-3" d="M172.35,110.45c.69.1,1.37.22,2,.35v0s12.33,1.53,27,13.1c2.17-.88,4.41-1.9,6.72-3.08-17.4-17-33.7-19-33.7-19v0c-.67-.13-1.35-.25-2-.35-14.32-2.17-26.85,2.16-28,9.67a8.6,8.6,0,0,0,1.32,5.74C149.44,111.42,160.26,108.61,172.35,110.45Z"/></g><g id="petal-highlight-7" data-name="petal-highlight"><path class="cls-3" d="M141.27,173.69l0,0c-.43-.54-.85-1.08-1.26-1.64-8.5-11.54-10.56-24.49-4.67-29.13-4.61-2.09-8.88-2.31-11.82-.15-6.11,4.51-4.1,17.62,4.49,29.28.41.56.83,1.1,1.26,1.64l0,0s9.38,13.5,32.53,21c0-1.73-.09-3.4-.2-5C147.3,182.35,141.27,173.69,141.27,173.69Z"/></g><g id="petal-highlight-8" data-name="petal-highlight"><path class="cls-3" d="M109.41,179.27h0c-.1-.68-.19-1.36-.27-2.05-1.22-10.88,1.24-20.59,5.76-25.05a9.23,9.23,0,0,0-7-2.55c-7.55.85-12.36,13.2-10.75,27.6.08.69.17,1.37.27,2.05h0s1.37,16.37,17.69,34.41a83.74,83.74,0,0,0,4.59-9.46C110.34,190.3,109.41,179.27,109.41,179.27Z"/></g><g id="petal-highlight-9" data-name="petal-highlight"><path class="cls-3" d="M77.36,169.71h0c.25-.63.52-1.27.8-1.9,4.09-9.28,10.39-16.11,16.2-18.32a8.21,8.21,0,0,0-3.54-3.14c-7-3.06-17.32,5.2-23.16,18.46-.28.63-.55,1.27-.8,1.9h0s-7,14.84-2,38.64a85.74,85.74,0,0,0,9.08-6.15C72.1,180.81,77.36,169.71,77.36,169.71Z"/></g><g id="petal-highlight-10" data-name="petal-highlight"><path class="cls-3" d="M53.79,150l0,0c.54-.43,1.08-.84,1.64-1.26,8.22-6,17.13-8.76,23.27-7.75a8,8,0,0,0-1.48-4.14c-4.49-6.13-17.6-4.16-29.29,4.39-.56.42-1.1.83-1.64,1.26l0,0S32.76,151.86,25.23,175a84.91,84.91,0,0,0,10.67-.75C43.52,157.11,53.79,150,53.79,150Z"/></g><g id="petal-highlight-11" data-name="petal-highlight"><path class="cls-3" d="M19.91,143.2c13.26-20.39,28.74-25.91,28.74-25.91v0c.63-.27,1.27-.53,1.91-.78A47.34,47.34,0,0,1,58,114.32c-5.72-1.69-14-1-22.43,2.23-.64.25-1.28.51-1.91.78v0S18.17,122.81,4.91,143.2a75.71,75.71,0,0,0,27.37,2.25A83.39,83.39,0,0,1,19.91,143.2Z"/></g><g id="petal-highlight-12" data-name="petal-highlight"><path class="cls-3" d="M41.11,114.66A75.92,75.92,0,0,1,15,105.45c16.61-15,31.8-17.39,34.1-17.66a45.83,45.83,0,0,0-12.63-.27c-.7.08-1.38.17-2,.27v0S18,89.12,0,105.45c21.2,11.93,37.47,9.64,37.47,9.64v0c.68,0,1.37-.11,2.06-.19Z"/></g><g id="petal-highlight-13" data-name="petal-highlight"><path class="cls-3" d="M53.6,79.53c-.64-.27-1.26-.56-1.87-.86l0,0s-13.9-5.63-25.95-24.38a81.82,81.82,0,0,0-13.68,1.79C24.47,77.05,39.71,83.21,39.71,83.21l0,0c.61.3,1.23.59,1.87.86,12.32,5.39,24.6,5,28.73-.69A42.65,42.65,0,0,1,53.6,79.53Z"/></g><g id="petal-highlight-14" data-name="petal-highlight"><path class="cls-3" d="M72.23,58c-.41-.56-.81-1.13-1.19-1.69l0,0S62.74,45.73,61,25.74A80.54,80.54,0,0,0,45.62,19C45.89,43.36,56,56.31,56,56.31l0,0c.38.56.78,1.13,1.19,1.69,8.59,11.66,20.52,17.46,26.63,13a6.65,6.65,0,0,0,1.22-1.15A42.18,42.18,0,0,1,72.23,58Z"/></g></g><g id="center-outer"><g id="center-outer-2" data-name="center-outer"><circle class="cls-4" cx="104.15" cy="106.9" r="48.6"/></g><g id="center-outer-shadow"><path class="cls-5" d="M85.84,112.23a48.63,48.63,0,0,1,33.31-51.57,48.6,48.6,0,1,0-9.67,94.54,49.19,49.19,0,0,0,9.66-2.06A48.62,48.62,0,0,1,85.84,112.23Z"/></g></g><g id="center"><path class="cls-5" d="M104.09,143a36.14,36.14,0,1,1,4-.22A36,36,0,0,1,104.09,143Z"/><g id="cetner-highlight"><path class="cls-4" d="M131.08,106.92a3,3,0,0,1-3-2.67,24,24,0,0,0-23.89-21.46,3,3,0,0,1,0-6,30,30,0,0,1,29.86,26.8,3,3,0,0,1-2.66,3.32Z"/></g><g id="center-shadow"><path class="cls-6" d="M101.5,142.9a48.59,48.59,0,0,1,0-72c-.44,0-.87.06-1.3.11a36.1,36.1,0,0,0,1.31,71.88Z"/></g><g id="center-shadow-round"><circle class="cls-6" cx="107.2" cy="129.63" r="8.75"/></g></g></g></g></g></svg>